<svg preserveAspectRatio="none" width="100%" height="100%" overflow="visible" style="display: block;" viewBox="0 0 24.1026 21.1785" fill="none" xmlns="http://www.w3.org/2000/svg">
<path id="Union" d="M4.44901 15.9303C4.46699 15.906 5.96323 13.8902 7.92265 14.6696C9.8937 15.4537 9.90058 17.876 9.00566 18.941C7.60153 20.6119 6.26822 21.0181 5.15995 21.1393C1.09538 21.5834 -1.11795 18.1008 0.571085 18.7321C2.35702 19.3996 4.44901 15.9303 4.44901 15.9303ZM22.7859 0.00939805C22.9981 -0.0153047 23.2159 0.00467329 23.4031 0.117796C23.4773 0.162659 23.5364 0.216106 23.5828 0.272093C23.6587 0.295612 23.7407 0.331398 23.8182 0.393187C24.0193 0.554002 24.0974 0.790672 24.1023 1.02307C24.1069 1.24406 24.0495 1.49988 23.9412 1.79358C23.5148 2.94963 22.0534 5.34246 18.0047 10.3883C16.728 11.9794 15.302 13.5352 14.198 14.691C13.6455 15.2696 13.1721 15.7493 12.8367 16.0846C12.6692 16.2521 12.5357 16.3834 12.4441 16.4733C12.3984 16.5182 12.3627 16.5534 12.3387 16.5768C12.3268 16.5884 12.3175 16.5971 12.3113 16.6031L12.3016 16.6129C12.1049 16.8028 11.7921 16.799 11.5994 16.6051L7.63554 12.6119C7.54154 12.5172 7.4889 12.3879 7.49003 12.2545C7.49129 12.1212 7.54585 11.994 7.6414 11.901L7.67753 11.8649C7.70143 11.8417 7.737 11.8077 7.783 11.7633C7.87501 11.6746 8.01035 11.5449 8.18144 11.3815C8.52361 11.0545 9.01179 10.5918 9.5955 10.0475C10.7626 8.95917 12.3155 7.54206 13.8543 6.23303C18.5288 2.25651 20.8481 0.741796 22.0232 0.236937C22.3218 0.108702 22.5727 0.034263 22.7859 0.00939805ZM10.2771 10.7789C9.69669 11.3202 9.21163 11.7805 8.87187 12.1051C8.81047 12.1638 8.75355 12.2177 8.70194 12.2672L11.9578 15.5465C12.0097 15.495 12.0679 15.4394 12.1297 15.3776C12.4605 15.0468 12.9281 14.5726 13.4744 14.0006C13.6332 13.8344 13.7961 13.6577 13.9666 13.4762L10.7918 10.3014C10.6134 10.4663 10.4414 10.6257 10.2771 10.7789ZM22.824 1.01526C22.7352 1.03481 22.6033 1.07619 22.4178 1.15588C21.3983 1.59394 19.1837 3.01272 14.5027 6.99475C13.3682 7.9599 12.2227 8.98555 11.2322 9.89416L14.3767 13.0387C15.2838 12.0589 16.2967 10.9185 17.2244 9.76233C21.287 4.69916 22.6412 2.42776 23.0027 1.44787C23.0374 1.35378 23.0589 1.27731 23.074 1.21741C23.0199 1.1976 22.968 1.16872 22.9226 1.13049C22.8833 1.09721 22.8508 1.05765 22.824 1.01526ZM23.368 1.23205H23.3709C23.3732 1.23158 23.3762 1.23102 23.3797 1.2301L23.3914 1.22717L23.3934 1.22619H23.3953L23.3943 1.22522C23.3857 1.22792 23.3767 1.22984 23.368 1.23205Z" fill="#CCCCCC"/>
</svg>
