<svg width="18" height="18" viewBox="0 0 18 18" fill="none" xmlns="http://www.w3.org/2000/svg"><path d="M9.43262 0C10.9532 0.000256118 12.1855 1.23334 12.1855 2.75391V4.85742H14.29C15.8105 4.8578 17.043 6.09081 17.043 7.61133V14.29C17.0426 15.8103 15.8103 17.0426 14.29 17.043H7.61133C6.09081 17.043 4.8578 15.8105 4.85742 14.29V12.1855H2.75391C1.23334 12.1855 0.000256117 10.9532 0 9.43262V2.75391C3.01579e-05 1.2332 1.2332 3.01582e-05 2.75391 0H9.43262ZM12.1855 9.43262C12.1853 10.953 10.953 12.1853 9.43262 12.1855H6.35742V14.29C6.3578 14.9821 6.91923 15.543 7.61133 15.543H14.29C14.9818 15.5426 15.5426 14.9818 15.543 14.29V7.61133C15.543 6.91923 14.9821 6.3578 14.29 6.35742H12.1855V9.43262ZM2.75391 1.5C2.06162 1.50003 1.50003 2.06162 1.5 2.75391V9.43262C1.50026 10.1247 2.06176 10.6855 2.75391 10.6855H9.43262C10.1246 10.6853 10.6853 10.1246 10.6855 9.43262V2.75391C10.6855 2.06176 10.1247 1.50026 9.43262 1.5H2.75391Z" fill="#CCCCCC"/></svg>
