<svg preserveAspectRatio="none" width="100%" height="100%" overflow="visible" style="display: block;" viewBox="0 0 17.8319 20.0274" fill="none" xmlns="http://www.w3.org/2000/svg">
<path id="Union" d="M6.0366 2.00049C7.14117 0.0873225 9.58828 -0.567944 11.5014 0.536626L15.8315 3.03663C17.7443 4.14134 18.3999 6.58749 17.2954 8.50049L11.7954 18.0269C10.7254 19.88 8.39597 20.5531 6.51219 19.5894L6.33152 19.4907L2.00145 16.9907L1.82469 16.8833C0.105648 15.7708 -0.494596 13.5304 0.43797 11.7075L0.536602 11.5269L6.0366 2.00049ZM11.0014 1.40186C9.56657 0.573433 7.73124 1.06562 6.90281 2.50049L4.21238 7.15967L13.7378 12.6606L16.4292 8.00049C17.2576 6.56567 16.7663 4.73034 15.3315 3.90186L11.0014 1.40186Z" fill="#CCCCCC"/>
</svg>
