<svg preserveAspectRatio="none" width="100%" height="100%" overflow="visible" style="display: block;" viewBox="0 0 24 24" fill="none" xmlns="http://www.w3.org/2000/svg">
<g id="setting">
<path id="Vector" fill-rule="evenodd" clip-rule="evenodd" d="M13.8287 3.61775C13.3623 1.70317 10.6377 1.70317 10.1713 3.61775C10.1017 3.90545 9.96512 4.17264 9.7727 4.39759C9.5803 4.62253 9.3375 4.79888 9.06408 4.91227C8.79065 5.02565 8.49432 5.07288 8.19918 5.05012C7.90405 5.02734 7.61847 4.93521 7.36567 4.78123C5.6818 3.75521 3.75492 5.68206 4.78095 7.3659C5.4437 8.45328 4.85582 9.87208 3.61868 10.1727C1.70286 10.6379 1.70286 13.3636 3.61868 13.8276C3.90647 13.8973 4.17371 14.034 4.39866 14.2265C4.62361 14.4191 4.7999 14.662 4.91318 14.9356C5.02647 15.2092 5.07353 15.5056 5.05056 15.8008C5.02758 16.096 4.9352 16.3816 4.78095 16.6344C3.75492 18.3182 5.6818 20.2451 7.36567 19.2191C7.61843 19.0648 7.90403 18.9724 8.19924 18.9495C8.49445 18.9265 8.79091 18.9735 9.06449 19.0869C9.33807 19.2001 9.58102 19.3764 9.77357 19.6013C9.96611 19.8263 10.1028 20.0936 10.1725 20.3813C10.6377 22.2971 13.3635 22.2971 13.8275 20.3813C13.8974 20.0937 14.0342 19.8266 14.2269 19.6019C14.4194 19.3771 14.6624 19.2009 14.9359 19.0876C15.2093 18.9744 15.5056 18.9273 15.8008 18.9501C16.0959 18.973 16.3815 19.0652 16.6343 19.2191C18.3182 20.2451 20.2451 18.3182 19.2191 16.6344C19.0651 16.3816 18.9729 16.096 18.9501 15.8009C18.9273 15.5057 18.9744 15.2095 19.0876 14.936C19.2009 14.6625 19.377 14.4195 19.6018 14.227C19.8266 14.0343 20.0937 13.8975 20.3813 13.8276C22.2971 13.3624 22.2971 10.6366 20.3813 10.1727C20.0936 10.103 19.8263 9.96633 19.6013 9.77376C19.3764 9.58122 19.2001 9.33826 19.0868 9.06469C18.9735 8.79113 18.9265 8.49466 18.9494 8.19946C18.9724 7.90425 19.0648 7.61865 19.2191 7.3659C20.2451 5.68206 18.3182 3.75521 16.6343 4.78123C16.3815 4.93547 16.0959 5.02785 15.8007 5.05082C15.5055 5.0738 15.2091 5.02674 14.9355 4.91346C14.6619 4.80018 14.419 4.62389 14.2264 4.39894C14.0339 4.174 13.8972 3.90676 13.8275 3.61898L13.8287 3.61775Z" stroke="#CCCCCC"/>
<path id="Vector_2" d="M14.1818 12C14.1818 13.205 13.205 14.1818 12 14.1818C10.795 14.1818 9.81818 13.205 9.81818 12C9.81818 10.795 10.795 9.81818 12 9.81818C13.205 9.81818 14.1818 10.795 14.1818 12Z" stroke="#CCCCCC"/>
</g>
</svg>
