<svg preserveAspectRatio="none" width="100%" height="100%" overflow="visible" style="display: block;" viewBox="0 0 24 24" fill="none" xmlns="http://www.w3.org/2000/svg">
<g id="scenes">
<path id="Rectangle 8" d="M2 6C2 3.79086 3.79086 2 6 2H18C20.2091 2 22 3.79086 22 6V7H2V6Z" fill="#505050"/>
<path id="Rectangle 9" d="M22 18C22 20.2091 20.2091 22 18 22H6C3.79086 22 2 20.2091 2 18V17H22V18Z" fill="#505050"/>
<path id="Vector" d="M3.0001 7.1999H21.0001M3.0001 16.7999H21.0001M12.0001 2.3999V21.5999M16.8001 2.3999V7.1999M16.8001 16.7999V21.5999M7.2001 2.3999V7.1999M7.2001 16.7999V21.5999M5.99999 2.3999H18.0001C19.9883 2.39991 21.6001 4.01168 21.6001 5.99991V17.9999C21.6001 19.9881 19.9883 21.5999 18.0001 21.5999H5.99999C4.01176 21.5999 2.39999 19.9881 2.39999 17.9999V5.9999C2.39999 4.01168 4.01176 2.3999 5.99999 2.3999Z" stroke="#CCCCCC" stroke-linecap="round" stroke-linejoin="round"/>
</g>
</svg>
