<svg preserveAspectRatio="none" width="100%" height="100%" overflow="visible" style="display: block;" viewBox="0 0 23 20" fill="none" xmlns="http://www.w3.org/2000/svg">
<g id="camera">
<path id="Icon" d="M6.20002 4.11999V4.61999C6.37786 4.61999 6.54231 4.52553 6.63191 4.37193L6.20002 4.11999ZM7.88002 1.23999V0.73999C7.70219 0.73999 7.53774 0.834446 7.44813 0.988055L7.88002 1.23999ZM14.12 1.23999L14.5519 0.988055C14.4623 0.834446 14.2979 0.73999 14.12 0.73999V1.23999ZM15.8 4.11999L15.3681 4.37193C15.4577 4.52553 15.6222 4.61999 15.8 4.61999V4.11999ZM1.40002 16.36H1.90002V6.51999H1.40002H0.900024V16.36H1.40002ZM3.80002 4.11999V4.61999H6.20002V4.11999V3.61999H3.80002V4.11999ZM6.20002 4.11999L6.63191 4.37193L8.31191 1.49193L7.88002 1.23999L7.44813 0.988055L5.76813 3.86805L6.20002 4.11999ZM7.88002 1.23999V1.73999H14.12V1.23999V0.73999H7.88002V1.23999ZM14.12 1.23999L13.6881 1.49193L15.3681 4.37193L15.8 4.11999L16.2319 3.86805L14.5519 0.988055L14.12 1.23999ZM15.8 4.11999V4.61999H18.2V4.11999V3.61999H15.8V4.11999ZM20.6 6.51999H20.1V16.36H20.6H21.1V6.51999H20.6ZM20.6 16.36H20.1C20.1 17.4093 19.2494 18.26 18.2 18.26V18.76V19.26C19.8016 19.26 21.1 17.9616 21.1 16.36H20.6ZM18.2 4.11999V4.61999C19.2494 4.61999 20.1 5.47065 20.1 6.51999H20.6H21.1C21.1 4.91836 19.8016 3.61999 18.2 3.61999V4.11999ZM1.40002 6.51999H1.90002C1.90002 5.47065 2.75068 4.61999 3.80002 4.61999V4.11999V3.61999C2.1984 3.61999 0.900024 4.91836 0.900024 6.51999H1.40002ZM3.80002 18.76V18.26C2.75068 18.26 1.90002 17.4093 1.90002 16.36H1.40002H0.900024C0.900024 17.9616 2.1984 19.26 3.80002 19.26V18.76ZM15.8 10.84H15.3C15.3 13.2148 13.3749 15.14 11 15.14V15.64V16.14C13.9271 16.14 16.3 13.7671 16.3 10.84H15.8ZM11 15.64V15.14C8.62518 15.14 6.7 13.2148 6.7 10.84H6.2H5.7C5.7 13.7671 8.0729 16.14 11 16.14V15.64ZM6.2 10.84H6.7C6.7 8.46515 8.62518 6.53996 11 6.53996V6.03996V5.53996C8.0729 5.53996 5.7 7.91287 5.7 10.84H6.2ZM11 6.03996V6.53996C13.3749 6.53996 15.3 8.46515 15.3 10.84H15.8H16.3C16.3 7.91287 13.9271 5.53996 11 5.53996V6.03996ZM18.2 18.76V18.26H3.80002V18.76V19.26H18.2V18.76Z" fill="#CCCCCC"/>
</g>
</svg>
