<svg preserveAspectRatio="none" width="100%" height="100%" overflow="visible" style="display: block;" viewBox="0 0 18.6656 17.4302" fill="none" xmlns="http://www.w3.org/2000/svg">
<path id="Union" d="M8.66504 0.536313C10.5782 -0.568135 13.0244 0.0880365 14.1289 2.00116L18.1289 8.92889L18.2275 9.10955C19.1602 10.9326 18.5601 13.1739 16.8408 14.2863L16.665 14.3928L12.335 16.8928L12.1543 16.9924C10.2704 17.9562 7.94111 17.2822 6.87109 15.4289L1.37109 5.90252C1.09501 5.42424 1.25904 4.81244 1.7373 4.53631L8.66504 0.536313ZM1.46484 9.71502C1.60283 9.71502 1.73037 9.79053 1.80469 9.90936C2.07012 10.3521 2.92949 11.853 2.92969 12.5226C2.92969 13.3435 2.27157 14.0129 1.46484 14.0129C0.65804 14.0128 0 13.3433 0 12.5226C0.000199896 11.8638 0.859543 10.3521 1.125 9.90936C1.1993 9.79067 1.32678 9.71506 1.46484 9.71502ZM13.2627 2.50116C12.4343 1.0663 10.5999 0.574154 9.16504 1.40252L2.32715 5.34979L16.2617 7.69549L13.2627 2.50116Z" fill="#CCCCCC"/>
</svg>
