<svg width="13" height="13" viewBox="0 0 13 13" fill="none" xmlns="http://www.w3.org/2000/svg">
<g id="eye">
<path id="Vector" d="M1.94285 7.46352C2.90671 8.42172 4.58766 9.74995 6.50011 9.74995C8.41252 9.74995 10.0931 8.42172 11.057 7.46352C11.3112 7.21083 11.4388 7.08402 11.5197 6.83589C11.5775 6.65887 11.5775 6.34113 11.5197 6.16411C11.4388 5.91597 11.3112 5.78917 11.057 5.53643C10.0931 4.57821 8.41252 3.25 6.50011 3.25C4.58766 3.25 2.90671 4.57821 1.94285 5.53643C1.68845 5.78933 1.56124 5.91587 1.48027 6.16411C1.42251 6.34113 1.42251 6.65887 1.48027 6.83589C1.56124 7.08413 1.68845 7.21061 1.94285 7.46352Z" stroke="#CCCCCC" stroke-linecap="round" stroke-linejoin="round"/>
<path id="Vector_2" d="M4.875 6.5C4.875 7.39749 5.60251 8.125 6.5 8.125C7.39749 8.125 8.125 7.39749 8.125 6.5C8.125 5.60251 7.39749 4.875 6.5 4.875C5.60251 4.875 4.875 5.60251 4.875 6.5Z" stroke="#CCCCCC" stroke-linecap="round" stroke-linejoin="round"/>
</g>
</svg>
