<svg width="22" height="18" viewBox="0 0 22 18" fill="none" xmlns="http://www.w3.org/2000/svg">
<g id="group">
<rect width="22" height="18" rx="4" fill="#161616"/>
<path id="Vector" d="M5 5.25V12C5 12.7 5 13.05 5.14532 13.3175C5.27315 13.5525 5.47697 13.7438 5.72786 13.8638C6.01277 14 6.38594 14 7.13112 14H14.8686C15.6138 14 15.9866 14 16.2715 13.8638C16.5223 13.7438 16.7269 13.5525 16.8547 13.3175C17 13.05 17 12.7 17 12V7.25001C17 6.55001 17 6.20001 16.8547 5.93251C16.7269 5.69688 16.5225 5.50624 16.2716 5.38624C15.9864 5.25 15.6133 5.25 14.8667 5.25H10.9999M5 5.25H10.9999M5 5.25C5 4.55937 5.59695 4 6.33332 4H8.78297C9.109 4 9.27255 4 9.42598 4.03437C9.56202 4.065 9.69188 4.11563 9.81115 4.18438C9.94568 4.26188 10.0611 4.36999 10.2916 4.58624L10.9999 5.25" stroke="#CCCCCC" stroke-linecap="round" stroke-linejoin="round"/>
</g>
</svg>
