<svg width="16" height="16" viewBox="0 0 16 16" fill="none" xmlns="http://www.w3.org/2000/svg">
<g id="import image">
<path id="Vector" d="M10.1707 8.2724L10.5242 7.91885C10.3331 7.72775 10.0248 7.72308 9.82799 7.9083L10.1707 8.2724ZM12.659 11.4678C12.8542 11.6631 13.1708 11.6631 13.3661 11.4678C13.5613 11.2726 13.5613 10.956 13.3661 10.7607L13.0125 11.1143L12.659 11.4678ZM13.8678 8.2724C13.8678 7.99626 13.6439 7.7724 13.3678 7.7724C13.0917 7.7724 12.8678 7.99626 12.8678 8.2724H13.3678H13.8678ZM8.74967 3.08858C9.02581 3.08858 9.24967 2.86472 9.24967 2.58858C9.24967 2.31244 9.02581 2.08858 8.74967 2.08858V2.58858V3.08858ZM12.1573 6.01906C12.1573 6.2952 12.3812 6.51906 12.6573 6.51906C12.9335 6.51906 13.1573 6.2952 13.1573 6.01906H12.6573H12.1573ZM13.1573 2C13.1573 1.72386 12.9335 1.5 12.6573 1.5C12.3812 1.5 12.1573 1.72386 12.1573 2H12.6573H13.1573ZM10.6478 3.50953C10.3717 3.50953 10.1478 3.73338 10.1478 4.00953C10.1478 4.28567 10.3717 4.50953 10.6478 4.50953V4.00953V3.50953ZM14.6668 4.50953C14.9429 4.50953 15.1668 4.28567 15.1668 4.00953C15.1668 3.73338 14.9429 3.50953 14.6668 3.50953V4.00953V4.50953ZM1.99885 11.9617C1.7936 12.1464 1.77696 12.4626 1.96169 12.6678C2.14642 12.8731 2.46256 12.8897 2.66782 12.705L2.33333 12.3333L1.99885 11.9617ZM5.66667 9.33333L6.02022 8.97978L5.68479 8.64435L5.33218 8.96169L5.66667 9.33333ZM6.64645 11.0202C6.84171 11.2155 7.15829 11.2155 7.35355 11.0202C7.54882 10.825 7.54882 10.5084 7.35355 10.3131L7 10.6667L6.64645 11.0202ZM4.13159 13.9562L4.47427 14.3203L10.5133 8.6365L10.1707 8.2724L9.82799 7.9083L3.78891 13.5921L4.13159 13.9562ZM10.1707 8.2724L9.81711 8.62595L12.659 11.4678L13.0125 11.1143L13.3661 10.7607L10.5242 7.91885L10.1707 8.2724ZM4.13159 13.9562V14.4562H11.2363V13.9562V13.4562H4.13159V13.9562ZM11.2363 13.9562V14.4562C12.6897 14.4562 13.8678 13.2781 13.8678 11.8247H13.3678H12.8678C12.8678 12.7258 12.1374 13.4562 11.2363 13.4562V13.9562ZM13.3678 11.8247H13.8678V8.2724H13.3678H12.8678V11.8247H13.3678ZM4.13159 13.9562V13.4562C3.23058 13.4562 2.50016 12.7258 2.50016 11.8247H2.00016H1.50016C1.50016 13.2781 2.67829 14.4562 4.13159 14.4562V13.9562ZM2.00016 11.8247H2.50016V4.72001H2.00016H1.50016V11.8247H2.00016ZM2.00016 4.72001H2.50016C2.50016 3.81899 3.23057 3.08858 4.13159 3.08858V2.58858V2.08858C2.67829 2.08858 1.50016 3.2667 1.50016 4.72001H2.00016ZM4.13159 2.58858V3.08858H8.74967V2.58858V2.08858H4.13159V2.58858ZM12.6573 6.01906H13.1573V4.00953H12.6573H12.1573V6.01906H12.6573ZM12.6573 4.00953H13.1573V2H12.6573H12.1573V4.00953H12.6573ZM12.6573 4.00953V3.50953H10.6478V4.00953V4.50953H12.6573V4.00953ZM12.6573 4.00953V4.50953H14.6668V4.00953V3.50953H12.6573V4.00953ZM6.26302 5.78572H5.76302C5.76302 6.09813 5.50976 6.3514 5.19731 6.3514V6.8514V7.3514C6.062 7.3514 6.76302 6.65046 6.76302 5.78572H6.26302ZM5.19731 6.8514V6.3514C4.88485 6.3514 4.63159 6.09813 4.63159 5.78572H4.13159H3.63159C3.63159 6.65045 4.3326 7.3514 5.19731 7.3514V6.8514ZM4.13159 5.78572H4.63159C4.63159 5.47328 4.88487 5.22001 5.19731 5.22001V4.72001V4.22001C4.33258 4.22001 3.63159 4.921 3.63159 5.78572H4.13159ZM5.19731 4.72001V5.22001C5.50974 5.22001 5.76302 5.47328 5.76302 5.78572H6.26302H6.76302C6.76302 4.921 6.06202 4.22001 5.19731 4.22001V4.72001ZM2.33333 12.3333L2.66782 12.705L6.00115 9.70498L5.66667 9.33333L5.33218 8.96169L1.99885 11.9617L2.33333 12.3333ZM5.66667 9.33333L5.31311 9.68689L6.64645 11.0202L7 10.6667L7.35355 10.3131L6.02022 8.97978L5.66667 9.33333Z" fill="#CCCCCC"/>
</g>
</svg>
