<svg width="22" height="18" viewBox="0 0 22 18" fill="none" xmlns="http://www.w3.org/2000/svg">
<g id="duplicate layer">
<rect width="22" height="18" rx="4" fill="#161616"/>
<path id="duplicate_icon" d="M11.9561 2.20215C13.0282 2.31086 13.8649 3.21663 13.8652 4.31738V6.13477H15.6826L15.8994 6.14551C16.9715 6.25442 17.8084 7.15999 17.8086 8.26074V13.6826C17.8082 14.8565 16.8565 15.8082 15.6826 15.8086H10.2607C9.15999 15.8084 8.25442 14.9715 8.14551 13.8994L8.13477 13.6826V11.8652H6.31738C5.21663 11.8649 4.31086 11.0282 4.20215 9.95605L4.19141 9.73926V4.31738C4.19178 3.14357 5.14357 2.19178 6.31738 2.19141H11.7393L11.9561 2.20215ZM13.8652 9.73926C13.8651 10.9134 12.9134 11.8651 11.7393 11.8652H9.13477V13.6826L9.14062 13.7979C9.19865 14.3653 9.67799 14.8084 10.2607 14.8086H15.6826C16.3042 14.8082 16.8082 14.3042 16.8086 13.6826V8.26074C16.8084 7.67799 16.3653 7.19865 15.7979 7.14062L15.6826 7.13477H13.8652V9.73926ZM6.31738 3.19141C5.69586 3.19178 5.19178 3.69586 5.19141 4.31738V9.73926L5.19727 9.85449C5.25509 10.4221 5.73463 10.8649 6.31738 10.8652H11.7393C12.3611 10.8651 12.8651 10.3611 12.8652 9.73926V4.31738C12.8649 3.73463 12.4221 3.25509 11.8545 3.19727L11.7393 3.19141H6.31738Z" fill="#CCCCCC"/>
</g>
</svg>
