<svg width="8" height="9.00007" viewBox="0 0 8 9.00007" fill="none" xmlns="http://www.w3.org/2000/svg">
<g id="Lock Layer">
<path id="Vector" d="M3.02349 3.41199H1.74452C1.30892 3.41199 1.09096 3.41199 0.924589 3.51763C0.778239 3.61055 0.65934 3.75872 0.584774 3.94109C0.5 4.14842 0.5 4.42003 0.5 4.96285L0.5 6.9494C0.5 7.49222 0.5 7.76326 0.584774 7.97058C0.65934 8.15294 0.778239 8.30161 0.924589 8.39451C1.0908 8.50006 1.3085 8.50006 1.74324 8.50006H6.25676C6.6915 8.50006 6.90889 8.50006 7.0751 8.39451C7.22144 8.30161 7.34075 8.15294 7.4153 7.97058C7.5 7.76345 7.5 7.49256 7.5 6.95081V4.96125C7.5 4.4195 7.5 4.14822 7.4153 3.94109C7.34075 3.75872 7.22144 3.61055 7.0751 3.51763C6.90873 3.41199 6.69123 3.41199 6.25563 3.41199H4.97642M3.02349 3.41199H3.04753M3.02349 3.41199C3.02837 3.412 3.03349 3.41199 3.03889 3.41199H3.04753M3.02349 3.41199C2.98222 3.41197 2.9591 3.41171 2.94081 3.40915M4.97642 3.41199C5.01776 3.41197 5.04113 3.41171 5.05941 3.40915M4.97642 3.41199H4.95239M4.97642 3.41199C4.97156 3.412 4.96643 3.41199 4.96102 3.41199H4.95239M3.04753 3.41199H4.95239" stroke="#CCCCCC" stroke-linecap="round" stroke-linejoin="round"/>
<path id="Vector_2" d="M3.24049 0.502321H2.24574C1.90694 0.502321 1.73742 0.502321 1.60801 0.586309C1.49419 0.660183 1.40171 0.777979 1.34371 0.922973C1.27778 1.0878 1.27778 1.30374 1.27778 1.7353M3.24049 0.502321H3.25919M3.24049 0.502321C3.24428 0.502325 3.24827 0.502321 3.25247 0.502321H3.25919M3.24049 0.502321C3.2084 0.502302 3.19041 0.502094 3.17619 0.500064M6.72222 3.40915V1.73403C6.72222 1.30332 6.72222 1.08764 6.65634 0.922973C6.59836 0.777979 6.50556 0.660183 6.39175 0.586309C6.26235 0.502321 6.09318 0.502321 5.75438 0.502321H4.75944M4.75944 0.502321C4.79159 0.502302 4.80977 0.502094 4.82399 0.500064M4.75944 0.502321H4.74075M4.75944 0.502321C4.75566 0.502325 4.75167 0.502321 4.74746 0.502321H4.74075M3.25919 0.502321H4.74075" stroke="#CCCCCC" stroke-linecap="round" stroke-linejoin="round"/>
</g>
</svg>
