<svg width="13" height="21" viewBox="0 0 13 21" fill="none" xmlns="http://www.w3.org/2000/svg"><mask id="lt1" fill="white"><path d="M0 6.125C0 2.74225 2.74225 0 6.125 0C9.50774 0 12.2502 2.74225 12.2502 6.125C12.2502 7.3648 11.8819 8.51855 11.2486 9.48283C10.2748 10.9656 9.78755 11.7065 9.72436 11.8173C9.16208 12.8023 9.26621 12.4549 9.19546 13.5869C9.1875 13.7141 9.1875 13.9067 9.1875 14.2917C9.1875 14.8555 8.73047 15.3125 8.16667 15.3125H4.08333C3.51955 15.3125 3.0625 14.8555 3.0625 14.2917C3.0625 13.9067 3.06248 13.7141 3.05453 13.5869C2.98376 12.4549 3.08729 12.8023 2.52505 11.8173C2.46185 11.7065 1.97538 10.9656 1.00161 9.48283C0.368358 8.51855 0 7.3648 0 6.125Z"/><path d="M2.625 17.9375C2.625 16.971 3.4085 16.1875 4.375 16.1875H7.875C8.8415 16.1875 9.625 16.971 9.625 17.9375V18.375C9.625 19.3415 8.8415 20.125 7.875 20.125H4.375C3.4085 20.125 2.625 19.3415 2.625 18.375V17.9375Z"/></mask><path d="M1.00161 9.48283L-0.252195 10.3062L-0.252184 10.3062L1.00161 9.48283ZM2.52505 11.8173L1.22222 12.5607L1.22233 12.5609L2.52505 11.8173ZM3.05453 13.5869L1.55745 13.6805L1.55745 13.6805L3.05453 13.5869ZM9.19546 13.5869L10.6925 13.6806L10.6925 13.6804L9.19546 13.5869ZM9.72436 11.8173L11.0271 12.5609L11.0272 12.5606L9.72436 11.8173ZM11.2486 9.48283L9.9948 8.65937L9.99477 8.65942L11.2486 9.48283ZM6.125 0V-1.5C1.91383 -1.5 -1.5 1.91383 -1.5 6.125H0H1.5C1.5 3.57068 3.57068 1.5 6.125 1.5V0ZM0 6.125H-1.5C-1.5 7.66625 -1.04114 9.10486 -0.252195 10.3062L1.00161 9.48283L2.25542 8.65944C1.77785 7.93223 1.5 7.06335 1.5 6.125H0ZM1.00161 9.48283L-0.252184 10.3062C0.235123 11.0483 0.599072 11.6025 0.849173 11.9852C0.974375 12.1767 1.06935 12.3227 1.13631 12.4267C1.21477 12.5485 1.23109 12.5762 1.22222 12.5607L2.52505 11.8173L3.82788 11.0739C3.73374 10.9089 3.19962 10.0972 2.25541 8.65942L1.00161 9.48283ZM2.52505 11.8173L1.22233 12.5609C1.2972 12.692 1.36074 12.8006 1.4131 12.8897C1.468 12.9831 1.50299 13.0423 1.53182 13.0929C1.5915 13.1976 1.56179 13.1596 1.53715 13.0773C1.51247 12.9949 1.51641 12.9467 1.52403 13.0665C1.52771 13.1244 1.53099 13.1931 1.53639 13.3012C1.54155 13.4043 1.54803 13.5298 1.55745 13.6805L3.05453 13.5869L4.55161 13.4933C4.54333 13.361 4.53757 13.2497 4.53265 13.1513C4.52797 13.0578 4.52333 12.9602 4.51798 12.8761C4.50754 12.7119 4.48896 12.4768 4.41103 12.2166C4.33315 11.9565 4.21948 11.7499 4.13822 11.6074C4.09659 11.5343 4.04688 11.4502 3.99955 11.3697C3.94967 11.2848 3.89346 11.1888 3.82777 11.0737L2.52505 11.8173ZM3.05453 13.5869L1.55745 13.6805C1.56166 13.7479 1.5625 13.8773 1.5625 14.2917H3.0625H4.5625C4.5625 13.9361 4.5633 13.6803 4.55161 13.4933L3.05453 13.5869ZM3.0625 14.2917H1.5625C1.5625 15.6839 2.69114 16.8125 4.08333 16.8125V15.3125V13.8125C4.34796 13.8125 4.5625 14.027 4.5625 14.2917H3.0625ZM4.08333 15.3125V16.8125H8.16667V15.3125V13.8125H4.08333V15.3125ZM8.16667 15.3125V16.8125C9.5589 16.8125 10.6875 15.6839 10.6875 14.2917H9.1875H7.6875C7.6875 14.027 7.90205 13.8125 8.16667 13.8125V15.3125ZM9.1875 14.2917H10.6875C10.6875 13.8771 10.6883 13.7479 10.6925 13.6806L9.19546 13.5869L7.69839 13.4932C7.68668 13.6803 7.6875 13.9363 7.6875 14.2917H9.1875ZM9.19546 13.5869L10.6925 13.6804C10.702 13.5297 10.7084 13.4041 10.7136 13.3009C10.719 13.1927 10.7222 13.124 10.7259 13.0659C10.7335 12.9457 10.7375 12.9938 10.7129 13.0762C10.6882 13.1587 10.6584 13.1969 10.7179 13.0925C10.7466 13.042 10.7816 12.9828 10.8364 12.8895C10.8887 12.8005 10.9522 12.692 11.0271 12.5609L9.72436 11.8173L8.42166 11.0736C8.35594 11.1888 8.2997 11.2849 8.24979 11.3698C8.20241 11.4505 8.15271 11.5346 8.11102 11.6078C8.02965 11.7507 7.91605 11.9574 7.83832 12.2177C7.76062 12.4778 7.74221 12.713 7.73186 12.8768C7.72656 12.9607 7.72195 13.0583 7.7173 13.1516C7.7124 13.2499 7.70665 13.3611 7.69838 13.4933L9.19546 13.5869ZM9.72436 11.8173L11.0272 12.5606C11.0181 12.5766 11.0341 12.5494 11.1128 12.4272C11.1799 12.3233 11.275 12.1773 11.4003 11.9856C11.6508 11.6027 12.0149 11.0485 12.5024 10.3062L11.2486 9.48283L9.99477 8.65942C9.05134 10.096 8.51566 10.9089 8.42148 11.074L9.72436 11.8173ZM11.2486 9.48283L12.5023 10.3063C13.2914 9.10486 13.7502 7.66622 13.7502 6.125H12.2502H10.7502C10.7502 7.06339 10.4724 7.93223 9.9948 8.65937L11.2486 9.48283ZM12.2502 6.125H13.7502C13.7502 1.91376 10.3361 -1.5 6.125 -1.5V0V1.5C8.67938 1.5 10.7502 3.57075 10.7502 6.125H12.2502ZM4.375 16.1875V17.6875H7.875V16.1875V14.6875H4.375V16.1875ZM9.625 17.9375H8.125V18.375H9.625H11.125V17.9375H9.625ZM7.875 20.125V18.625H4.375V20.125V21.625H7.875V20.125ZM2.625 18.375H4.125V17.9375H2.625H1.125V18.375H2.625ZM4.375 20.125V18.625C4.23693 18.625 4.125 18.5131 4.125 18.375H2.625H1.125C1.125 20.1699 2.58007 21.625 4.375 21.625V20.125ZM9.625 18.375H8.125C8.125 18.5131 8.01307 18.625 7.875 18.625V20.125V21.625C9.66993 21.625 11.125 20.1699 11.125 18.375H9.625ZM7.875 16.1875V17.6875C8.01307 17.6875 8.125 17.7994 8.125 17.9375H9.625H11.125C11.125 16.1426 9.66993 14.6875 7.875 14.6875V16.1875ZM4.375 16.1875V14.6875C2.58007 14.6875 1.125 16.1426 1.125 17.9375H2.625H4.125C4.125 17.7994 4.23693 17.6875 4.375 17.6875V16.1875Z" fill="#CCCCCC" mask="url(#lt1)"/></svg>