<svg width="14" height="21" viewBox="0 0 14 21" fill="none" xmlns="http://www.w3.org/2000/svg"><g clip-path="url(#clip0_37_225)"><mask id="path-1-inside-1_37_225" fill="white"><path d="M0.875 7C0.875 3.61725 3.61725 0.875 7 0.875C10.3827 0.875 13.1252 3.61725 13.1252 7C13.1252 8.2398 12.7569 9.39355 12.1236 10.3578C11.1498 11.8406 10.6625 12.5815 10.5994 12.6923C10.0371 13.6773 10.1412 13.3299 10.0705 14.4619C10.0625 14.5891 10.0625 14.7817 10.0625 15.1667C10.0625 15.7305 9.60547 16.1875 9.04167 16.1875H4.95833C4.39455 16.1875 3.9375 15.7305 3.9375 15.1667C3.9375 14.7817 3.93748 14.5891 3.92953 14.4619C3.85876 13.3299 3.96229 13.6773 3.40005 12.6923C3.33685 12.5815 2.85038 11.8406 1.87661 10.3578C1.24336 9.39355 0.875 8.2398 0.875 7Z"/><path d="M3.5 18.8125C3.5 17.846 4.2835 17.0625 5.25 17.0625H8.75C9.7165 17.0625 10.5 17.846 10.5 18.8125V19.25C10.5 20.2165 9.7165 21 8.75 21H5.25C4.2835 21 3.5 20.2165 3.5 19.25V18.8125Z"/></mask><path d="M1.87661 10.3578L1.04074 10.9068L1.04075 10.9068L1.87661 10.3578ZM3.40005 12.6923L2.5315 13.1879L2.53157 13.188L3.40005 12.6923ZM3.92953 14.4619L2.93148 14.5243L2.93148 14.5243L3.92953 14.4619ZM10.0705 14.4619L11.0685 14.5244L11.0685 14.5243L10.0705 14.4619ZM10.5994 12.6923L11.4678 13.188L11.4679 13.1878L10.5994 12.6923ZM12.1236 10.3578L11.2877 9.80886L11.2877 9.80889L12.1236 10.3578ZM7 0.875V-0.125C3.06497 -0.125 -0.125 3.06497 -0.125 7H0.875H1.875C1.875 4.16954 4.16954 1.875 7 1.875V0.875ZM0.875 7H-0.125C-0.125 8.44077 0.303694 9.78442 1.04074 10.9068L1.87661 10.3578L2.71248 9.8089C2.18302 9.00267 1.875 8.03884 1.875 7H0.875ZM1.87661 10.3578L1.04075 10.9068C1.52791 11.6486 1.89223 12.2034 2.14271 12.5866C2.26806 12.7784 2.36376 12.9255 2.43164 13.0309C2.50718 13.1481 2.53214 13.189 2.5315 13.1879L3.40005 12.6923L4.2686 12.1967C4.18478 12.0498 3.66654 11.2616 2.71248 9.80889L1.87661 10.3578ZM3.40005 12.6923L2.53157 13.188C2.60491 13.3165 2.66723 13.4229 2.71917 13.5113C2.77281 13.6026 2.81026 13.666 2.84122 13.7203C2.9045 13.8313 2.89868 13.8341 2.89113 13.8089C2.88355 13.7835 2.88993 13.7826 2.89802 13.9098C2.90198 13.9721 2.90549 14.0456 2.91077 14.1512C2.91589 14.2535 2.92225 14.3767 2.93148 14.5243L3.92953 14.4619L4.92758 14.3995C4.91912 14.2641 4.91323 14.1505 4.90827 14.0513C4.90348 13.9554 4.89906 13.8626 4.89399 13.7829C4.88402 13.6261 4.86788 13.4381 4.80705 13.235C4.74625 13.0321 4.65648 12.8662 4.57882 12.73C4.53933 12.6607 4.49206 12.5807 4.44347 12.498C4.39319 12.4125 4.33575 12.3143 4.26853 12.1965L3.40005 12.6923ZM3.92953 14.4619L2.93148 14.5243C2.93694 14.6116 2.9375 14.7621 2.9375 15.1667H3.9375H4.9375C4.9375 14.8013 4.93802 14.5665 4.92758 14.3995L3.92953 14.4619ZM3.9375 15.1667H2.9375C2.9375 16.2828 3.84227 17.1875 4.95833 17.1875V16.1875V15.1875C4.95361 15.1875 4.95163 15.1867 4.95053 15.1863C4.94876 15.1855 4.94621 15.184 4.9436 15.1814C4.94099 15.1788 4.93948 15.1762 4.93873 15.1745C4.93826 15.1734 4.9375 15.1714 4.9375 15.1667H3.9375ZM4.95833 16.1875V17.1875H9.04167V16.1875V15.1875H4.95833V16.1875ZM9.04167 16.1875V17.1875C10.1578 17.1875 11.0625 16.2828 11.0625 15.1667H10.0625H9.0625C9.0625 15.1714 9.06174 15.1734 9.06127 15.1745C9.06052 15.1763 9.05901 15.1788 9.0564 15.1814C9.0538 15.184 9.05125 15.1855 9.04949 15.1863C9.04838 15.1867 9.0464 15.1875 9.04167 15.1875V16.1875ZM10.0625 15.1667H11.0625C11.0625 14.762 11.063 14.6116 11.0685 14.5244L10.0705 14.4619L9.07242 14.3994C9.06195 14.5665 9.0625 14.8014 9.0625 15.1667H10.0625ZM10.0705 14.4619L11.0685 14.5243C11.0777 14.3766 11.0841 14.2534 11.0892 14.151C11.0945 14.0453 11.0979 13.9718 11.1019 13.9094C11.1099 13.7819 11.1163 13.7828 11.1088 13.8081C11.1012 13.8335 11.0953 13.8308 11.1584 13.72C11.1893 13.6658 11.2267 13.6024 11.2803 13.5112C11.3322 13.4229 11.3945 13.3165 11.4678 13.188L10.5994 12.6923L9.73089 12.1965C9.66365 12.3143 9.6062 12.4125 9.55589 12.4981C9.50727 12.5809 9.46003 12.6608 9.4205 12.7302C9.34278 12.8667 9.25308 13.0326 9.19241 13.2358C9.13176 13.4388 9.11576 13.6268 9.10587 13.7833C9.10084 13.8629 9.09645 13.9557 9.09168 14.0515C9.08674 14.1506 9.08087 14.2642 9.07241 14.3995L10.0705 14.4619ZM10.5994 12.6923L11.4679 13.1878C11.4671 13.1892 11.4919 13.1487 11.5676 13.0313C11.6356 12.9259 11.7314 12.7788 11.8569 12.5869C12.1076 12.2035 12.4722 11.6487 12.9594 10.9068L12.1236 10.3578L11.2877 9.80889C10.3342 11.2608 9.81462 12.0498 9.73077 12.1967L10.5994 12.6923ZM12.1236 10.3578L12.9594 10.9068C13.6966 9.78442 14.1252 8.44075 14.1252 7H13.1252H12.1252C12.1252 8.03886 11.8172 9.00267 11.2877 9.80886L12.1236 10.3578ZM13.1252 7H14.1252C14.1252 3.06493 10.935 -0.125 7 -0.125V0.875V1.875C9.8305 1.875 12.1252 4.16958 12.1252 7H13.1252ZM5.25 17.0625V18.0625H8.75V17.0625V16.0625H5.25V17.0625ZM10.5 18.8125H9.5V19.25H10.5H11.5V18.8125H10.5ZM8.75 21V20H5.25V21V22H8.75V21ZM3.5 19.25H4.5V18.8125H3.5H2.5V19.25H3.5ZM5.25 21V20C4.83579 20 4.5 19.6642 4.5 19.25H3.5H2.5C2.5 20.7688 3.73122 22 5.25 22V21ZM10.5 19.25H9.5C9.5 19.6642 9.16421 20 8.75 20V21V22C10.2688 22 11.5 20.7688 11.5 19.25H10.5ZM8.75 17.0625V18.0625C9.16421 18.0625 9.5 18.3983 9.5 18.8125H10.5H11.5C11.5 17.2937 10.2688 16.0625 8.75 16.0625V17.0625ZM5.25 17.0625V16.0625C3.73122 16.0625 2.5 17.2937 2.5 18.8125H3.5H4.5C4.5 18.3983 4.83579 18.0625 5.25 18.0625V17.0625Z" fill="#CCCCCC" mask="url(#path-1-inside-1_37_225)"/></g><defs><clipPath id="clip0_37_225"><rect width="14" height="21" fill="white"/></clipPath></defs></svg>