<svg preserveAspectRatio="none" width="100%" height="100%" overflow="visible" style="display: block;" viewBox="0 0 36 36" fill="none" xmlns="http://www.w3.org/2000/svg">
<g id="Warp">
<path id="Vector" d="M8.57143 7.21429C8.29529 7.21429 8.07143 7.43814 8.07143 7.71429C8.07143 7.99043 8.29529 8.21429 8.57143 8.21429V7.71429V7.21429ZM27.4286 8.21429C27.7047 8.21429 27.9286 7.99043 27.9286 7.71429C27.9286 7.43814 27.7047 7.21429 27.4286 7.21429V7.71429V8.21429ZM28.7857 8.57143C28.7857 8.29529 28.5619 8.07143 28.2857 8.07143C28.0096 8.07143 27.7857 8.29529 27.7857 8.57143H28.2857H28.7857ZM27.7857 27.4286C27.7857 27.7047 28.0096 27.9286 28.2857 27.9286C28.5619 27.9286 28.7857 27.7047 28.7857 27.4286H28.2857H27.7857ZM27.4286 28.7857C27.7047 28.7857 27.9286 28.5619 27.9286 28.2857C27.9286 28.0096 27.7047 27.7857 27.4286 27.7857V28.2857V28.7857ZM8.57143 27.7857C8.29529 27.7857 8.07143 28.0096 8.07143 28.2857C8.07143 28.5619 8.29529 28.7857 8.57143 28.7857V28.2857V27.7857ZM7.21429 27.4286C7.21429 27.7047 7.43814 27.9286 7.71429 27.9286C7.99043 27.9286 8.21429 27.7047 8.21429 27.4286H7.71429H7.21429ZM8.21429 8.57143C8.21429 8.29529 7.99043 8.07143 7.71429 8.07143C7.43814 8.07143 7.21429 8.29529 7.21429 8.57143H7.71429H8.21429ZM6 6V5.5H5.5V6H6ZM8.57143 6H9.07143V5.5H8.57143V6ZM8.57143 8.57143V9.07143H9.07143V8.57143H8.57143ZM6 8.57143H5.5V9.07143H6V8.57143ZM6 27.4286V26.9286H5.5V27.4286H6ZM8.57143 27.4286H9.07143V26.9286H8.57143V27.4286ZM8.57143 30V30.5H9.07143V30H8.57143ZM6 30H5.5V30.5H6V30ZM27.4286 6V5.5H26.9286V6H27.4286ZM30 6H30.5V5.5H30V6ZM30 8.57143V9.07143H30.5V8.57143H30ZM27.4286 8.57143H26.9286V9.07143H27.4286V8.57143ZM27.4286 27.4286V26.9286H26.9286V27.4286H27.4286ZM30 27.4286H30.5V26.9286H30V27.4286ZM30 30V30.5H30.5V30H30ZM27.4286 30H26.9286V30.5H27.4286V30ZM15 12H15.5V11.5H15V12ZM15 15V15.5H15.5V15H15ZM12 15H11.5V15.5H12V15ZM12 21V20.5H11.5V21H12ZM15 21H15.5V20.5H15V21ZM15 24V24.5H15.5V24H15ZM21 12V11.5H20.5V12H21ZM24 15V15.5H24.5V15H24ZM21 15H20.5V15.5H21V15ZM21 21V20.5H20.5V21H21ZM24 21H24.5V20.5H24V21ZM21 24H20.5V24.5H21V24ZM8.57143 7.71429V8.21429H27.4286V7.71429V7.21429H8.57143V7.71429ZM28.2857 8.57143H27.7857V27.4286H28.2857H28.7857V8.57143H28.2857ZM27.4286 28.2857V27.7857H8.57143V28.2857V28.7857H27.4286V28.2857ZM7.71429 27.4286H8.21429V8.57143H7.71429H7.21429V27.4286H7.71429ZM6 6V6.5H8.57143V6V5.5H6V6ZM8.57143 6H8.07143V8.57143H8.57143H9.07143V6H8.57143ZM8.57143 8.57143V8.07143H6V8.57143V9.07143H8.57143V8.57143ZM6 8.57143H6.5V6H6H5.5V8.57143H6ZM6 27.4286V27.9286H8.57143V27.4286V26.9286H6V27.4286ZM8.57143 27.4286H8.07143V30H8.57143H9.07143V27.4286H8.57143ZM8.57143 30V29.5H6V30V30.5H8.57143V30ZM6 30H6.5V27.4286H6H5.5V30H6ZM27.4286 6V6.5H30V6V5.5H27.4286V6ZM30 6H29.5V8.57143H30H30.5V6H30ZM30 8.57143V8.07143H27.4286V8.57143V9.07143H30V8.57143ZM27.4286 8.57143H27.9286V6H27.4286H26.9286V8.57143H27.4286ZM27.4286 27.4286V27.9286H30V27.4286V26.9286H27.4286V27.4286ZM30 27.4286H29.5V30H30H30.5V27.4286H30ZM30 30V29.5H27.4286V30V30.5H30V30ZM27.4286 30H27.9286V27.4286H27.4286H26.9286V30H27.4286ZM12 12V12.5H15V12V11.5H12V12ZM15 12H14.5V15H15H15.5V12H15ZM15 15V14.5H12V15V15.5H15V15ZM12 15H12.5V12H12H11.5V15H12ZM12 21V21.5H15V21V20.5H12V21ZM15 21H14.5V24H15H15.5V21H15ZM15 24V23.5H12V24V24.5H15V24ZM12 24H12.5V21H12H11.5V24H12ZM21 12V12.5H24V12V11.5H21V12ZM24 12H23.5V15H24H24.5V12H24ZM24 15V14.5H21V15V15.5H24V15ZM21 15H21.5V12H21H20.5V15H21ZM21 21V21.5H24V21V20.5H21V21ZM24 21H23.5V24H24H24.5V21H24ZM24 24V23.5H21V24V24.5H24V24ZM21 24H21.5V21H21H20.5V24H21ZM27.5 8.5L27.1464 8.14645L23.6464 11.6464L24 12L24.3536 12.3536L27.8536 8.85355L27.5 8.5ZM21 13.5V13H15V13.5V14H21V13.5ZM13.5 15H13V21H13.5H14V15H13.5ZM22.5 15H22V21H22.5H23V15H22.5ZM21 22.5V22H15V22.5V23H21V22.5ZM27.5 27.5L27.8536 27.1464L24.3536 23.6464L24 24L23.6464 24.3536L27.1464 27.8536L27.5 27.5ZM8.5 8.5L8.14645 8.85355L11.6464 12.3536L12 12L12.3536 11.6464L8.85355 8.14645L8.5 8.5ZM8.5 27.5L8.85355 27.8536L12.3536 24.3536L12 24L11.6464 23.6464L8.14645 27.1464L8.5 27.5Z" fill="#CCCCCC"/>
</g>
</svg>
