<svg preserveAspectRatio="none" width="100%" height="100%" overflow="visible" style="display: block;" viewBox="0 0 36 36" fill="none" xmlns="http://www.w3.org/2000/svg">
<g id="Pivot Point">
<path id="Vector" d="M8.57143 7.71429H27.4286M28.2857 8.57143V27.4286M27.4286 28.2857H8.57143M7.71429 27.4286V8.57143M18 20.5714C19.4202 20.5714 20.5714 19.4202 20.5714 18C20.5714 16.5798 19.4202 15.4286 18 15.4286M18 20.5714C16.5798 20.5714 15.4286 19.4202 15.4286 18C15.4286 16.5798 16.5798 15.4286 18 15.4286M18 20.5714V23.1429M18 15.4286V12.8571M12.8614 18.0043H15.4329M20.5757 18.0043H23.1471M6 6H8.57143V8.57143H6V6ZM6 27.4286H8.57143V30H6V27.4286ZM27.4286 6H30V8.57143H27.4286V6ZM27.4286 27.4286H30V30H27.4286V27.4286Z" stroke="#CCCCCC" stroke-linecap="round"/>
</g>
</svg>
