<svg preserveAspectRatio="none" width="100%" height="100%" overflow="visible" style="display: block;" viewBox="0 0 20.6 20.6" fill="none" xmlns="http://www.w3.org/2000/svg">
<g id="Frame 3">
<rect x="0.6" y="0.6" width="17" height="17" stroke="#CCCCCC" stroke-width="1.2" stroke-linecap="round" stroke-dasharray="3 3 3 3"/>
<path id="Vector" d="M19.3174 20.5019L20.5019 19.3174C20.6327 19.1866 20.6327 18.9745 20.5019 18.8437L18.6345 16.9763C18.4933 16.8351 18.5063 16.6025 18.6622 16.4778L20.232 15.222C20.4445 15.052 20.3764 14.713 20.1148 14.6382L13.0275 12.6133C12.7747 12.5411 12.5411 12.7747 12.6133 13.0275L14.6382 20.1148C14.713 20.3764 15.052 20.4445 15.222 20.232L16.4778 18.6622C16.6025 18.5063 16.8351 18.4933 16.9763 18.6345L18.8437 20.5019C18.9745 20.6327 19.1866 20.6327 19.3174 20.5019Z" fill="#CCCCCC"/>
</g>
</svg>
