<svg preserveAspectRatio="none" width="100%" height="100%" overflow="visible" style="display: block;" viewBox="0 0 27.5 26.5" fill="none" xmlns="http://www.w3.org/2000/svg">
<g id="Frame 4">
<rect id="Rectangle 25" x="0.5" y="0.5" width="24" height="24" stroke="#CCCCCC" stroke-linecap="round" stroke-dasharray="3 3"/>
<path id="Vector" d="M26.2174 26.4019L27.4019 25.2174C27.5327 25.0866 27.5327 24.8745 27.4019 24.7437L25.5345 22.8763C25.3933 22.7351 25.4063 22.5025 25.5622 22.3778L27.132 21.122C27.3445 20.952 27.2764 20.613 27.0148 20.5382L19.9275 18.5133C19.6747 18.4411 19.4411 18.6747 19.5133 18.9275L21.5382 26.0148C21.613 26.2764 21.952 26.3445 22.122 26.132L23.3778 24.5622C23.5025 24.4063 23.7351 24.3933 23.8763 24.5345L25.7437 26.4019C25.8745 26.5327 26.0866 26.5327 26.2174 26.4019Z" fill="#CCCCCC"/>
</g>
</svg>
